<svg width="77" height="81" viewBox="0 0 77 81" fill="none" xmlns="http://www.w3.org/2000/svg">
<path d="M45.4622 80.1145H31.1406C29.2918 80.1145 27.6922 78.8047 27.2965 76.966L25.6952 69.4193C23.5589 68.4664 21.5333 67.2747 19.6557 65.8662L12.428 68.2095C10.6653 68.7818 8.74914 68.0265 7.82458 66.3949L0.648006 53.7729C-0.266425 52.1406 0.0486153 50.0816 1.40737 48.8098L7.01407 43.6023C6.7591 41.2434 6.7591 38.8631 7.01407 36.5042L1.40737 31.3088C0.0466138 30.0364 -0.268551 27.9749 0.648006 26.3417L7.80884 13.7116C8.7334 12.0801 10.6496 11.3247 12.4122 11.897L19.6399 14.2404C20.6002 13.5159 21.5999 12.8473 22.6341 12.2375C23.627 11.6675 24.6487 11.1513 25.6952 10.6913L27.3005 3.15251C27.6942 1.31375 29.2921 0.0019804 31.1406 0H45.4622C47.3107 0.0019804 48.9086 1.31375 49.3023 3.15251L50.9233 10.6953C52.0281 11.1901 53.104 11.7491 54.1457 12.3697C55.1173 12.9418 56.0565 13.569 56.9589 14.2484L64.1906 11.905C65.952 11.3349 67.8658 12.0899 68.79 13.7196L75.9509 26.3497C76.8653 27.9819 76.5502 30.041 75.1915 31.3128L69.5848 36.5202C69.8398 38.8791 69.8398 41.2594 69.5848 43.6184L75.1915 48.8258C76.5502 50.0976 76.8653 52.1566 75.9509 53.7889L68.79 66.419C67.8658 68.0487 65.952 68.8037 64.1906 68.2336L56.9589 65.8902C56.0438 66.5764 55.0929 67.2115 54.1103 67.7929C53.0788 68.4014 52.0148 68.9511 50.9233 69.4393L49.3023 76.966C48.907 78.8032 47.3095 80.113 45.4622 80.1145ZM21.0682 56.9975L24.2945 59.4009C25.0218 59.9463 25.7798 60.4479 26.5647 60.9031C27.3032 61.3385 28.0636 61.7343 28.8428 62.0888L32.5137 63.7271L34.3118 72.1031H42.2989L44.0969 63.7231L47.7679 62.0848C49.3704 61.3653 50.8915 60.4708 52.3044 59.417L55.5346 57.0135L63.565 59.6172L67.5585 52.5752L61.3302 46.7949L61.7708 42.7411C61.9644 40.968 61.9644 39.1786 61.7708 37.4055L61.3302 33.3517L67.5624 27.5594L63.565 20.5133L55.5346 23.1171L52.3044 20.7136C50.891 19.6549 49.3702 18.7538 47.7679 18.0258L44.0969 16.3874L42.2989 8.01145H34.3118L32.5058 16.3914L28.8428 18.0258C28.063 18.3744 27.3025 18.7663 26.5647 19.1995C25.7846 19.6534 25.0306 20.1523 24.3063 20.6936L21.0761 23.097L13.0496 20.4933L9.04821 27.5594L15.2766 33.3317L14.8359 37.3895C14.6423 39.1625 14.6423 40.952 14.8359 42.7251L15.2766 46.7789L9.04821 52.5592L13.0418 59.6012L21.0682 56.9975ZM38.2857 56.0802C29.5937 56.0802 22.5476 48.9065 22.5476 40.0573C22.5476 31.2081 29.5937 24.0344 38.2857 24.0344C46.9776 24.0344 54.0238 31.2081 54.0238 40.0573C54.0129 48.9019 46.9731 56.0691 38.2857 56.0802ZM38.2857 32.0458C33.9868 32.0503 30.487 35.5662 30.4254 39.9425C30.3638 44.3187 33.7632 47.9353 38.0602 48.0652C42.3572 48.195 45.9613 44.79 46.1547 40.4178V42.0201V40.0573C46.1547 35.6327 42.6316 32.0458 38.2857 32.0458Z" fill="black"/>
</svg>
