<svg width="79" height="77" viewBox="0 0 79 77" fill="none" xmlns="http://www.w3.org/2000/svg">
<path d="M21.6684 76.3445C15.6217 76.3185 10.2987 72.244 8.54539 66.2994H0.155273V58.2633H8.54539C10.5594 51.3241 17.3737 47.0901 24.2918 48.4796C31.2099 49.869 35.97 56.4277 35.2915 63.6351C34.6129 70.8426 28.7174 76.3426 21.6684 76.3445ZM21.6684 56.2543C18.428 56.2543 15.8012 58.9527 15.8012 62.2814C15.8012 65.61 18.428 68.3084 21.6684 68.3084C24.9088 68.3084 27.5356 65.61 27.5356 62.2814C27.5356 58.9527 24.9088 56.2543 21.6684 56.2543ZM78.3848 66.2994H39.27V58.2633H78.3848V66.2994ZM56.8717 52.2363C49.8226 52.2344 43.9272 46.7344 43.2486 39.527C42.57 32.3195 47.3302 25.7609 54.2482 24.3714C61.1663 22.982 67.9806 27.2159 69.9947 34.1552H78.3848V42.1912H69.9947C68.2413 48.1358 62.9184 52.2103 56.8717 52.2363ZM56.8717 32.1462C53.6313 32.1462 51.0044 34.8446 51.0044 38.1732C51.0044 41.5018 53.6313 44.2002 56.8717 44.2002C60.112 44.2002 62.7389 41.5018 62.7389 38.1732C62.7389 34.8446 60.112 32.1462 56.8717 32.1462ZM39.27 42.1912H0.155273V34.1552H39.27V42.1912ZM29.4913 28.1281C22.4423 28.1263 16.5468 22.6263 15.8683 15.4188C15.1897 8.21134 19.9498 1.65272 26.8679 0.263269C33.786 -1.12619 40.6003 3.10777 42.6143 10.047H78.3848V18.0831H42.6143C40.8599 24.0269 35.5376 28.1008 29.4913 28.1281ZM29.4913 8.03799C26.2917 8.04244 23.6855 10.6796 23.6329 13.966C23.5803 17.2523 26.1007 19.976 29.2985 20.0885C32.4963 20.201 35.1922 17.6608 35.3585 14.3784V15.5437V14.065C35.3585 10.7364 32.7317 8.03799 29.4913 8.03799ZM11.8897 18.0831H0.155273V10.047H11.8897V18.0831Z" fill="black"/>
</svg>
