<svg width="100" height="100" viewBox="0 0 100 100" fill="none" xmlns="http://www.w3.org/2000/svg">
<path d="M18.4166 85.7457C17.2478 85.7437 16.1336 85.2508 15.3458 84.3874C14.5435 83.531 14.1448 82.3729 14.25 81.2041L15.2708 69.9791L62.4291 22.8374L77.1666 37.5707L30.0208 84.7082L18.7958 85.7291C18.6666 85.7416 18.5375 85.7457 18.4166 85.7457ZM80.1083 34.6249L65.375 19.8916L74.2125 11.0541C74.994 10.2717 76.0545 9.83203 77.1604 9.83203C78.2663 9.83203 79.3268 10.2717 80.1083 11.0541L88.9458 19.8916C89.7282 20.6731 90.1678 21.7336 90.1678 22.8395C90.1678 23.9453 89.7282 25.0059 88.9458 25.7874L80.1125 34.6207L80.1083 34.6249Z" fill="#2E3A59"/>
</svg>
