<svg width="84" height="83" viewBox="0 0 84 83" fill="none" xmlns="http://www.w3.org/2000/svg">
<path d="M75.3333 82.6666H8.66665C4.06427 82.6666 0.333313 78.9356 0.333313 74.3333V28.7041C0.473943 25.9077 1.98864 23.3619 4.37915 21.9041L37.7125 1.9041C40.3505 0.32233 43.6453 0.32233 46.2833 1.9041L79.6167 21.9041C82.1216 23.4157 83.6567 26.1243 83.6667 29.0499V74.3333C83.6667 78.9356 79.9357 82.6666 75.3333 82.6666ZM8.66665 32.1166V74.3333H75.3333V32.1166L42 54.3374L8.66665 32.1166ZM42 9.04994L14.15 25.7583L42 44.3249L69.8458 25.7583L42 9.04994Z" fill="#2E3A59"/>
</svg>
