<svg width="80" height="80" viewBox="0 0 80 80" fill="none" xmlns="http://www.w3.org/2000/svg">
<path d="M40 79.1666C18.3688 79.1666 0.833313 61.6311 0.833313 39.9999C0.833313 18.3688 18.3688 0.833252 40 0.833252C61.6311 0.833252 79.1666 18.3688 79.1666 39.9999C79.1429 61.6212 61.6213 79.1428 40 79.1666ZM8.66665 40.6736C8.85197 57.9118 22.9277 71.7623 40.1666 71.6701C57.4055 71.577 71.3315 57.5759 71.3315 40.3367C71.3315 23.0976 57.4055 9.09653 40.1666 9.00341C22.9277 8.91121 8.85197 22.7617 8.66665 39.9999V40.6736ZM43.9166 59.5833H36.0833V43.9166H20.4166V36.0833H36.0833V20.4166H43.9166V36.0833H59.5833V43.9166H43.9166V59.5833Z" fill="#F2F2F2"/>
</svg>
