<svg width="100" height="100" viewBox="0 0 100 100" fill="none" xmlns="http://www.w3.org/2000/svg">
<path d="M12.5 87.5V20.8333C12.5 16.231 16.231 12.5 20.8333 12.5H79.1667C83.769 12.5 87.5 16.231 87.5 20.8333V62.5C87.5 67.1024 83.769 70.8333 79.1667 70.8333H37.5C35.6964 70.83 33.9409 71.4152 32.5 72.5L12.5 87.5ZM20.8333 20.8333V70.8333L29.725 64.1667C31.1652 63.0805 32.9211 62.4951 34.725 62.5H79.1667V20.8333H20.8333ZM45.8333 56.5042L30.3875 41.0542L36.2792 35.1667L45.8333 44.7208L63.7208 26.8333L69.6125 32.725L45.8333 56.5V56.5042Z" fill="#2E3A59"/>
</svg>
