<svg width="100" height="100" viewBox="0 0 100 100" fill="none" xmlns="http://www.w3.org/2000/svg">
<path d="M31.25 89.5832C24.8089 89.5563 19.1386 85.3311 17.2709 79.1666H8.33337V70.8332H17.2709C19.4163 63.6373 26.6752 59.2467 34.0446 60.6876C41.414 62.1284 46.4847 68.9296 45.7619 76.4037C45.0391 83.8778 38.759 89.5813 31.25 89.5832ZM31.25 68.7499C27.7983 68.7499 25 71.5481 25 74.9999C25 78.4517 27.7983 81.2499 31.25 81.2499C34.7018 81.2499 37.5 78.4517 37.5 74.9999C37.5 71.5481 34.7018 68.7499 31.25 68.7499ZM91.6667 79.1666H50V70.8332H91.6667V79.1666ZM68.75 64.5832C61.2411 64.5813 54.961 58.8778 54.2382 51.4037C53.5153 43.9297 58.586 37.1284 65.9555 35.6876C73.3249 34.2467 80.5838 38.6373 82.7292 45.8332H91.6667V54.1666H82.7292C80.8615 60.3311 75.1912 64.5563 68.75 64.5832ZM68.75 43.7499C65.2983 43.7499 62.5 46.5481 62.5 49.9999C62.5 53.4517 65.2983 56.2499 68.75 56.2499C72.2018 56.2499 75 53.4517 75 49.9999C75 46.5481 72.2018 43.7499 68.75 43.7499ZM50 54.1666H8.33337V45.8332H50V54.1666ZM39.5834 39.5832C32.0744 39.5813 25.7943 33.8778 25.0715 26.4037C24.3487 18.9297 29.4194 12.1284 36.7888 10.6876C44.1582 9.2467 51.4171 13.6373 53.5625 20.8332H91.6667V29.1666H53.5625C51.6936 35.3303 46.0241 39.5549 39.5834 39.5832ZM39.5834 18.7499C36.1749 18.7545 33.3987 21.4892 33.3427 24.8971C33.2866 28.3051 35.9715 31.1296 39.3779 31.2462C42.7844 31.3629 45.6561 28.7287 45.8334 25.3249V26.5332V24.9999C45.8334 21.5481 43.0352 18.7499 39.5834 18.7499ZM20.8334 29.1666H8.33337V20.8332H20.8334V29.1666Z" fill="#2E3A59"/>
</svg>
