<svg width="100" height="100" viewBox="0 0 100 100" fill="none" xmlns="http://www.w3.org/2000/svg">
<path d="M16.6667 79.1709H8.33337C8.33337 65.3638 19.5263 54.1709 33.3334 54.1709C47.1405 54.1709 58.3334 65.3638 58.3334 79.1709H50C50 69.9661 42.5381 62.5042 33.3334 62.5042C24.1286 62.5042 16.6667 69.9661 16.6667 79.1709ZM76.5167 64.0167L70.625 58.1251C76.0955 52.6552 79.1688 45.2361 79.1688 37.5001C79.1688 29.7641 76.0955 22.345 70.625 16.8751L76.5167 10.9834C91.1588 25.6276 91.1588 49.3683 76.5167 64.0126V64.0167ZM64.7292 52.2334L58.8375 46.3334C63.7118 41.4531 63.7118 33.547 58.8375 28.6667L64.7292 22.7626C72.8649 30.8985 72.8649 44.0892 64.7292 52.2251V52.2334ZM33.3334 50.0001C24.1286 50.0001 16.6667 42.5381 16.6667 33.3334C16.6667 24.1287 24.1286 16.6667 33.3334 16.6667C42.5381 16.6667 50 24.1287 50 33.3334C50 37.7537 48.2441 41.9929 45.1185 45.1185C41.9929 48.2441 37.7536 50.0001 33.3334 50.0001ZM33.3334 25.0001C28.7809 25.0047 25.0746 28.6619 25.0093 33.214C24.9441 37.766 28.5441 41.528 33.0946 41.6631C37.6451 41.7981 41.4618 38.2563 41.6667 33.7084V35.3751V33.3334C41.6667 28.731 37.9357 25.0001 33.3334 25.0001Z" fill="#2E3A59"/>
</svg>
